ffmpeg started on 2016-12-03 at 16:52:16
Report written to "Output/x264/results/ffmpeg/old_town_cross_2160p50placebo14000k.log"
Command line:
Tools/ffmpeg/ffmpeg -benchmark -y -i Input/y4m/old_town_cross_2160p50.y4m -c:v libx264 -preset placebo -b:v 14000k -an Output/x264/encoded/old_town_cross_2160p50placebo14000k.mkv
ffmpeg version N-82227-gdb23fde Copyright (c) 2000-2016 the FFmpeg developers
  built with gcc 5.4.0 (Ubuntu 5.4.0-6ubuntu1~16.04.2) 20160609
  configuration: --prefix=/home/jaroslav/ffmpeg_build --pkg-config-flags=--static --extra-cflags=-I/home/jaroslav/ffmpeg_build/include --extra-ldflags=-L/home/jaroslav/ffmpeg_build/lib --bindir=/home/jaroslav/bin --enable-gpl --enable-libass --enable-libfdk-aac --enable-libfreetype --enable-libmp3lame --enable-libopus --enable-libtheora --enable-libvorbis --enable-libvpx --enable-libx264 --enable-libx265 --enable-nvenc --enable-libmfx --enable-libxvid --enable-libgsm --enable-libopencore-amrnb --enable-version3 --enable-nonfree
  libavutil      55. 35.100 / 55. 35.100
  libavcodec     57. 66.101 / 57. 66.101
  libavformat    57. 57.100 / 57. 57.100
  libavdevice    57.  2.100 / 57.  2.100
  libavfilter     6. 66.100 /  6. 66.100
  libswscale      4.  3.100 /  4.  3.100
  libswresample   2.  4.100 /  2.  4.100
  libpostproc    54.  2.100 / 54.  2.100
Input #0, yuv4mpegpipe, from 'Input/y4m/old_town_cross_2160p50.y4m':
  Duration: 00:00:10.00, start: 0.000000, bitrate: 4976642 kb/s
    Stream #0:0: Video: rawvideo (I420 / 0x30323449), yuv420p(progressive), 3840x2160, SAR 1:1 DAR 16:9, 50 fps, 50 tbr, 50 tbn, 50 tbc
[libx264 @ 0x2dce120] using SAR=1/1
[libx264 @ 0x2dce120] DPB size (16 frames, 518400 mbs) > level limit (5 frames, 184320 mbs)
[libx264 @ 0x2dce120] using cpu capabilities: MMX2 SSE2Fast SSSE3 SSE4.2 AVX FMA3 AVX2 LZCNT BMI2
[libx264 @ 0x2dce120] profile High, level 5.2
[libx264 @ 0x2dce120] 264 - core 148 - H.264/MPEG-4 AVC codec - Copyleft 2003-2016 - http://www.videolan.org/x264.html - options: cabac=1 ref=16 deblock=1:0:0 analyse=0x3:0x133 me=tesa subme=11 psy=1 psy_rd=1.00:0.00 mixed_ref=1 me_range=24 chroma_me=1 trellis=2 8x8dct=1 cqm=0 deadzone=21,11 fast_pskip=0 chroma_qp_offset=-2 threads=6 lookahead_threads=1 sliced_threads=0 nr=0 decimate=1 interlaced=0 bluray_compat=0 constrained_intra=0 bframes=16 b_pyramid=2 b_adapt=2 b_bias=0 direct=3 weightb=1 open_gop=0 weightp=2 keyint=250 keyint_min=25 scenecut=40 intra_refresh=0 rc_lookahead=60 rc=abr mbtree=1 bitrate=14000 ratetol=1.0 qcomp=0.60 qpmin=0 qpmax=69 qpstep=4 ip_ratio=1.40 aq=1:1.00
Output #0, matroska, to 'Output/x264/encoded/old_town_cross_2160p50placebo14000k.mkv':
  Metadata:
    encoder         : Lavf57.57.100
    Stream #0:0: Video: h264 (libx264) (H264 / 0x34363248), yuv420p, 3840x2160 [SAR 1:1 DAR 16:9], q=-1--1, 14000 kb/s, 50 fps, 1k tbn, 50 tbc
    Metadata:
      encoder         : Lavc57.66.101 libx264
    Side data:
      cpb: bitrate max/min/avg: 0/0/14000000 buffer size: 0 vbv_delay: -1
Stream mapping:
  Stream #0:0 -> #0:0 (rawvideo (native) -> h264 (libx264))
Press [q] to stop, [?] for help
frame=   59 fps=0.0 q=0.0 size=       0kB time=00:00:00.00 bitrate=N/A speed=   0x    frame=   84 fps=3.3 q=0.0 size=       0kB time=00:00:00.00 bitrate=N/A speed=   0x    frame=   89 fps=3.0 q=31.0 size=       1kB time=-00:00:00.01 bitrate=N/A speed=N/A    frame=   90 fps=2.1 q=31.0 size=       1kB time=00:00:00.00 bitrate=5888.0kbits/s speed=2.33e-05x    frame=   91 fps=2.0 q=31.0 size=       1kB time=00:00:00.02 bitrate= 280.4kbits/s speed=0.00047x    frame=   92 fps=2.0 q=31.0 size=       1kB time=00:00:00.04 bitrate= 143.6kbits/s speed=0.000884x    frame=   95 fps=2.0 q=31.0 size=       1kB time=00:00:00.10 bitrate=  58.3kbits/s speed=0.00214x    frame=   96 fps=1.6 q=31.0 size=       1kB time=00:00:00.12 bitrate=  48.7kbits/s speed=0.00203x    frame=   97 fps=1.6 q=31.0 size=       1kB time=00:00:00.14 bitrate=  41.8kbits/s speed=0.00231x    frame=   98 fps=1.6 q=39.0 size=       1kB time=00:00:00.16 bitrate=  36.6kbits/s speed=0.00259x    frame=  102 fps=1.4 q=33.0 size=       1kB time=00:00:00.24 bitrate=  24.4kbits/s speed=0.00337x    frame=  103 fps=1.4 q=34.0 size=       1kB time=00:00:00.26 bitrate=  22.6kbits/s speed=0.00359x    frame=  105 fps=1.4 q=36.0 size=       1kB time=00:00:00.30 bitrate=  19.6kbits/s speed=0.00404x    frame=  106 fps=1.3 q=37.0 size=       1kB time=00:00:00.32 bitrate=  18.3kbits/s speed=0.00382x    frame=  108 fps=1.2 q=47.0 size=       1kB time=00:00:00.36 bitrate=  16.3kbits/s speed=0.00406x    frame=  112 fps=1.2 q=40.0 size=       1kB time=00:00:00.44 bitrate=  13.4kbits/s speed=0.00472x    frame=  114 fps=1.2 q=42.0 size=       1kB time=00:00:00.48 bitrate=  12.2kbits/s speed=0.00507x    frame=  115 fps=1.2 q=42.0 size=       1kB time=00:00:00.50 bitrate=  11.8kbits/s speed=0.00523x    frame=  116 fps=1.2 q=43.0 size=       1kB time=00:00:00.52 bitrate=  11.3kbits/s speed=0.0052x    frame=  118 fps=1.1 q=44.0 size=       1kB time=00:00:00.56 bitrate=  10.5kbits/s speed=0.00545x    frame=  120 fps=1.2 q=46.0 size=       1kB time=00:00:00.60 bitrate=   9.8kbits/s speed=0.00578x    frame=  122 fps=1.1 q=46.0 size=       1kB time=00:00:00.64 bitrate=   9.2kbits/s speed=0.00589x    frame=  124 fps=1.1 q=47.0 size=       1kB time=00:00:00.68 bitrate=   8.6kbits/s speed=0.00614x    frame=  128 fps=1.1 q=46.0 size=       1kB time=00:00:00.76 bitrate=   7.7kbits/s speed=0.00645x    frame=  129 fps=1.1 q=46.0 size=       1kB time=00:00:00.78 bitrate=   7.5kbits/s speed=0.00657x    frame=  130 fps=1.1 q=46.0 size=       1kB time=00:00:00.80 bitrate=   7.4kbits/s speed=0.00669x    frame=  134 fps=1.1 q=43.0 size=       1kB time=00:00:00.88 bitrate=   6.7kbits/s speed=0.00707x    frame=  135 fps=1.1 q=44.0 size=       1kB time=00:00:00.90 bitrate=   6.5kbits/s speed=0.00714x    frame=  139 fps=1.1 q=45.0 size=       1kB time=00:00:00.98 bitrate=   6.0kbits/s speed=0.00774x    frame=  140 fps=1.0 q=44.0 size=       1kB time=00:00:01.00 bitrate=   5.9kbits/s speed=0.00731x    frame=  141 fps=1.0 q=44.0 size=       1kB time=00:00:01.02 bitrate=   5.8kbits/s speed=0.00742x    frame=  142 fps=1.0 q=44.0 size=       1kB time=00:00:01.04 bitrate=   5.7kbits/s speed=0.00752x    frame=  146 fps=1.0 q=43.0 size=       1kB time=00:00:01.12 bitrate=   5.3kbits/s speed=0.00772x    frame=  147 fps=1.0 q=43.0 size=       1kB time=00:00:01.14 bitrate=   5.2kbits/s speed=0.00781x    frame=  148 fps=1.0 q=43.0 size=       1kB time=00:00:01.16 bitrate=   5.1kbits/s speed=0.00784x    frame=  150 fps=1.0 q=42.0 size=       1kB time=00:00:01.20 bitrate=   4.9kbits/s speed=0.00762x    frame=  151 fps=1.0 q=42.0 size=       1kB time=00:00:01.22 bitrate=   4.8kbits/s speed=0.0077x    frame=  152 fps=1.0 q=42.0 size=       1kB time=00:00:01.24 bitrate=   4.7kbits/s speed=0.00777x    frame=  156 fps=0.9 q=42.0 size=       1kB time=00:00:01.32 bitrate=   4.5kbits/s speed=0.00789x    frame=  157 fps=0.9 q=41.0 size=       1kB time=00:00:01.34 bitrate=   4.4kbits/s speed=0.00796x    frame=  158 fps=0.9 q=41.0 size=       1kB time=00:00:01.36 bitrate=   4.3kbits/s speed=0.00798x    frame=  160 fps=0.9 q=41.0 size=       1kB time=00:00:01.40 bitrate=   4.2kbits/s speed=0.00759x    frame=  161 fps=0.9 q=41.0 size=       1kB time=00:00:01.42 bitrate=   4.1kbits/s speed=0.00766x    frame=  162 fps=0.9 q=41.0 size=       1kB time=00:00:01.44 bitrate=   4.1kbits/s speed=0.0077x    frame=  166 fps=0.8 q=40.0 size=       1kB time=00:00:01.52 bitrate=   3.9kbits/s speed=0.00768x    frame=  167 fps=0.8 q=40.0 size=       1kB time=00:00:01.54 bitrate=   3.8kbits/s speed=0.00776x    frame=  168 fps=0.8 q=40.0 size=       1kB time=00:00:01.56 bitrate=   3.8kbits/s speed=0.00772x    frame=  170 fps=0.8 q=40.0 size=       1kB time=00:00:01.60 bitrate=   3.7kbits/s speed=0.00738x    frame=  171 fps=0.8 q=40.0 size=       1kB time=00:00:01.62 bitrate=   3.6kbits/s speed=0.00743x    frame=  172 fps=0.8 q=40.0 size=       1kB time=00:00:01.64 bitrate=   3.6kbits/s speed=0.00748x    frame=  176 fps=0.8 q=39.0 size=       1kB time=00:00:01.72 bitrate=   3.4kbits/s speed=0.00744x    frame=  177 fps=0.8 q=39.0 size=       1kB time=00:00:01.74 bitrate=   3.4kbits/s speed=0.00743x    frame=  179 fps=0.8 q=39.0 size=       1kB time=00:00:01.78 bitrate=   3.3kbits/s speed=0.00754x    frame=  180 fps=0.8 q=39.0 size=       1kB time=00:00:01.80 bitrate=   3.3kbits/s speed=0.00756x    frame=  181 fps=0.7 q=39.0 size=       1kB time=00:00:01.82 bitrate=   3.2kbits/s speed=0.00721x    frame=  182 fps=0.7 q=39.0 size=       1kB time=00:00:01.84 bitrate=   3.2kbits/s speed=0.00725x    frame=  183 fps=0.7 q=38.0 size=       1kB time=00:00:01.86 bitrate=   3.2kbits/s speed=0.00729x    frame=  187 fps=0.7 q=38.0 size=       1kB time=00:00:01.94 bitrate=   3.0kbits/s speed=0.00724x    frame=  188 fps=0.7 q=38.0 size=       1kB time=00:00:01.96 bitrate=   3.0kbits/s speed=0.0072x    frame=  189 fps=0.7 q=38.0 size=       1kB time=00:00:01.98 bitrate=   3.0kbits/s speed=0.00719x    frame=  191 fps=0.7 q=38.0 size=       1kB time=00:00:02.02 bitrate=   2.9kbits/s speed=0.00731x    frame=  192 fps=0.7 q=38.0 size=       1kB time=00:00:02.04 bitrate=   2.9kbits/s speed=0.00703x    frame=  193 fps=0.7 q=38.0 size=       1kB time=00:00:02.06 bitrate=   2.9kbits/s speed=0.00707x    frame=  194 fps=0.7 q=38.0 size=       1kB time=00:00:02.08 bitrate=   2.8kbits/s speed=0.0071x    frame=  198 fps=0.6 q=37.0 size=       1kB time=00:00:02.16 bitrate=   2.7kbits/s speed=0.00704x    frame=  199 fps=0.6 q=37.0 size=       1kB time=00:00:02.18 bitrate=   2.7kbits/s speed=0.00704x    frame=  200 fps=0.6 q=37.0 size=       1kB time=00:00:02.20 bitrate=   2.7kbits/s speed=0.00704x    frame=  202 fps=0.6 q=37.0 size=       1kB time=00:00:02.24 bitrate=   2.6kbits/s speed=0.00716x    frame=  203 fps=0.6 q=37.0 size=       1kB time=00:00:02.26 bitrate=   2.6kbits/s speed=0.00688x    frame=  204 fps=0.6 q=36.0 size=       1kB time=00:00:02.28 bitrate=   2.6kbits/s speed=0.0069x    frame=  205 fps=0.6 q=36.0 size=       1kB time=00:00:02.30 bitrate=   2.6kbits/s speed=0.00694x    frame=  206 fps=0.6 q=37.0 size=       1kB time=00:00:02.32 bitrate=   2.5kbits/s speed=0.00698x    frame=  209 fps=0.6 q=36.0 size=       1kB time=00:00:02.38 bitrate=   2.5kbits/s speed=0.00689x    frame=  210 fps=0.6 q=36.0 size=       1kB time=00:00:02.40 bitrate=   2.5kbits/s speed=0.00667x    frame=  211 fps=0.6 q=36.0 size=       1kB time=00:00:02.42 bitrate=   2.4kbits/s speed=0.00669x    frame=  212 fps=0.6 q=36.0 size=       1kB time=00:00:02.44 bitrate=   2.4kbits/s speed=0.00673x    frame=  214 fps=0.6 q=36.0 size=       1kB time=00:00:02.48 bitrate=   2.4kbits/s speed=0.00682x    frame=  216 fps=0.6 q=36.0 size=       1kB time=00:00:02.52 bitrate=   2.3kbits/s speed=0.00668x    frame=  217 fps=0.6 q=36.0 size=       1kB time=00:00:02.54 bitrate=   2.3kbits/s speed=0.00668x    frame=  218 fps=0.6 q=36.0 size=       1kB time=00:00:02.56 bitrate=   2.3kbits/s speed=0.00668x    frame=  220 fps=0.6 q=36.0 size=       1kB time=00:00:02.60 bitrate=   2.3kbits/s speed=0.00673x    frame=  221 fps=0.6 q=36.0 size=       1kB time=00:00:02.62 bitrate=   2.2kbits/s speed=0.00654x    frame=  222 fps=0.6 q=36.0 size=       1kB time=00:00:02.64 bitrate=   2.2kbits/s speed=0.00656x    frame=  223 fps=0.6 q=36.0 size=       1kB time=00:00:02.66 bitrate=   2.2kbits/s speed=0.00658x    frame=  226 fps=0.6 q=35.0 size=       1kB time=00:00:02.72 bitrate=   2.2kbits/s speed=0.0067x    frame=  227 fps=0.5 q=35.0 size=       1kB time=00:00:02.74 bitrate=   2.1kbits/s speed=0.00652x    frame=  228 fps=0.5 q=36.0 size=       1kB time=00:00:02.76 bitrate=   2.1kbits/s speed=0.00652x    frame=  229 fps=0.5 q=35.0 size=       1kB time=00:00:02.78 bitrate=   2.1kbits/s speed=0.00655x    frame=  230 fps=0.5 q=35.0 size=       1kB time=00:00:02.80 bitrate=   2.1kbits/s speed=0.00656x    frame=  232 fps=0.5 q=35.0 size=    5139kB time=00:00:02.84 bitrate=14819.2kbits/s speed=0.00641x    frame=  233 fps=0.5 q=35.0 size=    5139kB time=00:00:02.86 bitrate=14715.6kbits/s speed=0.00643x    frame=  234 fps=0.5 q=35.0 size=    5139kB time=00:00:02.88 bitrate=14613.5kbits/s speed=0.00645x    frame=  236 fps=0.5 q=35.0 size=    5139kB time=00:00:02.92 bitrate=14413.4kbits/s speed=0.00652x    frame=  237 fps=0.5 q=35.0 size=    5139kB time=00:00:02.94 bitrate=14315.3kbits/s speed=0.00656x    frame=  238 fps=0.5 q=35.0 size=    5139kB time=00:00:02.96 bitrate=14218.6kbits/s speed=0.00641x    frame=  239 fps=0.5 q=35.0 size=    5139kB time=00:00:02.98 bitrate=14123.2kbits/s speed=0.00642x    frame=  240 fps=0.5 q=35.0 size=    5139kB time=00:00:03.00 bitrate=14029.1kbits/s speed=0.00628x    frame=  241 fps=0.5 q=35.0 size=    5139kB time=00:00:03.02 bitrate=13936.2kbits/s speed=0.0063x    frame=  242 fps=0.5 q=35.0 size=    5139kB time=00:00:03.04 bitrate=13844.6kbits/s speed=0.00633x    frame=  246 fps=0.5 q=35.0 size=    5139kB time=00:00:03.12 bitrate=13489.7kbits/s speed=0.00629x    frame=  247 fps=0.5 q=35.0 size=    5139kB time=00:00:03.14 bitrate=13403.8kbits/s speed=0.00627x    frame=  248 fps=0.5 q=35.0 size=    5139kB time=00:00:03.16 bitrate=13319.0kbits/s speed=0.00628x    frame=  250 fps=0.5 q=35.0 size=    5139kB time=00:00:03.20 bitrate=13152.6kbits/s speed=0.00633x    frame=  251 fps=0.5 q=34.0 size=    5139kB time=00:00:03.22 bitrate=13070.9kbits/s speed=0.00619x    frame=  252 fps=0.5 q=34.0 size=    5139kB time=00:00:03.24 bitrate=12990.3kbits/s speed=0.00621x    frame=  253 fps=0.5 q=34.0 size=    5139kB time=00:00:03.26 bitrate=12910.6kbits/s speed=0.0062x    frame=  256 fps=0.5 q=34.0 size=    5139kB time=00:00:03.32 bitrate=12677.3kbits/s speed=0.00629x    frame=  257 fps=0.5 q=34.0 size=    5139kB time=00:00:03.34 bitrate=12601.4kbits/s speed=0.00622x    frame=  258 fps=0.5 q=34.0 size=    5139kB time=00:00:03.36 bitrate=12526.5kbits/s speed=0.00621x    frame=  259 fps=0.5 q=34.0 size=    5139kB time=00:00:03.38 bitrate=12452.4kbits/s speed=0.00608x    frame=  260 fps=0.5 q=34.0 size=    5139kB time=00:00:03.40 bitrate=12379.1kbits/s speed=0.0061x    frame=  261 fps=0.5 q=34.0 size=    5139kB time=00:00:03.42 bitrate=12306.8kbits/s speed=0.00613x    frame=  264 fps=0.5 q=34.0 size=    5139kB time=00:00:03.48 bitrate=12094.6kbits/s speed=0.00621x    frame=  265 fps=0.5 q=34.0 size=    5139kB time=00:00:03.50 bitrate=12025.5kbits/s speed=0.00603x    frame=  266 fps=0.5 q=34.0 size=    5139kB time=00:00:03.52 bitrate=11957.2kbits/s speed=0.00604x    frame=  267 fps=0.5 q=34.0 size=    5139kB time=00:00:03.54 bitrate=11889.7kbits/s speed=0.00606x    frame=  270 fps=0.4 q=34.0 size=    5139kB time=00:00:03.60 bitrate=11691.6kbits/s speed=0.006x    frame=  271 fps=0.4 q=34.0 size=    5139kB time=00:00:03.62 bitrate=11627.0kbits/s speed=0.00599x    frame=  272 fps=0.4 q=34.0 size=    5139kB time=00:00:03.64 bitrate=11563.1kbits/s speed=0.006x    frame=  274 fps=0.5 q=34.0 size=    5139kB time=00:00:03.68 bitrate=11437.5kbits/s speed=0.00606x    frame=  276 fps=0.4 q=34.0 size=    5139kB time=00:00:03.72 bitrate=11314.5kbits/s speed=0.00594x    frame=  277 fps=0.4 q=34.0 size=    5139kB time=00:00:03.74 bitrate=11254.1kbits/s speed=0.00594x    frame=  278 fps=0.4 q=33.0 size=    5139kB time=00:00:03.76 bitrate=11194.2kbits/s speed=0.00595x    frame=  280 fps=0.4 q=34.0 size=    5139kB time=00:00:03.80 bitrate=11076.4kbits/s speed=0.00599x    frame=  282 fps=0.4 q=34.0 size=    5139kB time=00:00:03.84 bitrate=10961.1kbits/s speed=0.00592x    frame=  283 fps=0.4 q=34.0 size=    5139kB time=00:00:03.86 bitrate=10904.3kbits/s speed=0.00594x    frame=  284 fps=0.4 q=34.0 size=    5139kB time=00:00:03.88 bitrate=10848.1kbits/s speed=0.00583x    frame=  285 fps=0.4 q=34.0 size=    5139kB time=00:00:03.90 bitrate=10792.5kbits/s speed=0.00585x    frame=  286 fps=0.4 q=34.0 size=    5139kB time=00:00:03.92 bitrate=10737.4kbits/s speed=0.00586x    frame=  290 fps=0.4 q=33.0 size=    5139kB time=00:00:04.00 bitrate=10522.7kbits/s speed=0.00579x    frame=  291 fps=0.4 q=33.0 size=    5139kB time=00:00:04.02 bitrate=10470.4kbits/s speed=0.00581x    frame=  292 fps=0.4 q=33.0 size=    5139kB time=00:00:04.04 bitrate=10418.6kbits/s speed=0.00582x    frame=  294 fps=0.4 q=33.0 size=    5139kB time=00:00:04.08 bitrate=10316.4kbits/s speed=0.00587x    frame=  296 fps=0.4 q=33.0 size=    5139kB time=00:00:04.12 bitrate=10216.3kbits/s speed=0.00578x    frame=  297 fps=0.4 q=33.0 size=    5139kB time=00:00:04.14 bitrate=10167.0kbits/s speed=0.00569x    frame=  298 fps=0.4 q=33.0 size=    5139kB time=00:00:04.16 bitrate=10118.1kbits/s speed=0.00571x    frame=  299 fps=0.4 q=33.0 size=    5139kB time=00:00:04.18 bitrate=10069.7kbits/s speed=0.00572x    frame=  302 fps=0.4 q=33.0 size=    5139kB time=00:00:04.24 bitrate=9927.2kbits/s speed=0.00577x    frame=  303 fps=0.4 q=33.0 size=    5139kB time=00:00:04.26 bitrate=9880.6kbits/s speed=0.00568x    frame=  304 fps=0.4 q=33.0 size=    5139kB time=00:00:04.28 bitrate=9834.5kbits/s speed=0.00569x    frame=  305 fps=0.4 q=33.0 size=    5139kB time=00:00:04.30 bitrate=9788.7kbits/s speed=0.0057x    frame=  306 fps=0.4 q=33.0 size=    5139kB time=00:00:04.32 bitrate=9743.4kbits/s speed=0.00572x    frame=  307 fps=0.4 q=33.0 size=    5139kB time=00:00:04.34 bitrate=9698.6kbits/s speed=0.00561x    frame=  308 fps=0.4 q=33.0 size=    5139kB time=00:00:04.36 bitrate=9654.1kbits/s speed=0.00563x    frame=  309 fps=0.4 q=33.0 size=    5139kB time=00:00:04.38 bitrate=9610.0kbits/s speed=0.00564x    frame=  311 fps=0.4 q=33.0 size=    5139kB time=00:00:04.42 bitrate=9523.1kbits/s speed=0.00567x    frame=  312 fps=0.4 q=33.0 size=    5139kB time=00:00:04.44 bitrate=9480.2kbits/s speed=0.00569x    frame=  313 fps=0.4 q=33.0 size=    5139kB time=00:00:04.46 bitrate=9437.7kbits/s speed=0.00561x    frame=  314 fps=0.4 q=33.0 size=    5139kB time=00:00:04.48 bitrate=9395.5kbits/s speed=0.00561x    frame=  315 fps=0.4 q=33.0 size=    5139kB time=00:00:04.50 bitrate=9353.8kbits/s speed=0.00562x    frame=  317 fps=0.4 q=33.0 size=    5139kB time=00:00:04.54 bitrate=9271.4kbits/s speed=0.00565x    frame=  319 fps=0.4 q=33.0 size=    5139kB time=00:00:04.58 bitrate=9190.4kbits/s speed=0.00551x    frame=  320 fps=0.4 q=33.0 size=    5139kB time=00:00:04.60 bitrate=9150.5kbits/s speed=0.00552x    frame=  321 fps=0.4 q=33.0 size=    5139kB time=00:00:04.62 bitrate=9110.9kbits/s speed=0.00554x    frame=  325 fps=0.4 q=33.0 size=    5139kB time=00:00:04.70 bitrate=8955.8kbits/s speed=0.0055x    frame=  326 fps=0.4 q=33.0 size=    5139kB time=00:00:04.72 bitrate=8917.9kbits/s speed=0.00551x    frame=  327 fps=0.4 q=33.0 size=    5139kB time=00:00:04.74 bitrate=8880.3kbits/s speed=0.00551x    frame=  329 fps=0.4 q=33.0 size=    5139kB time=00:00:04.78 bitrate=8806.0kbits/s speed=0.00548x    frame=  330 fps=0.4 q=33.0 size=    5139kB time=00:00:04.80 bitrate=8769.3kbits/s speed=0.00549x    frame=  331 fps=0.4 q=33.0 size=    5139kB time=00:00:04.82 bitrate=8732.9kbits/s speed=0.00546x    frame=  333 fps=0.4 q=34.0 size=    5139kB time=00:00:04.86 bitrate=8661.1kbits/s speed=0.0055x    frame=  335 fps=0.4 q=34.0 size=    5139kB time=00:00:04.90 bitrate=8590.4kbits/s speed=0.00548x    frame=  337 fps=0.4 q=34.0 size=    7905kB time=00:00:04.94 bitrate=13105.5kbits/s speed=0.0055x    frame=  341 fps=0.4 q=34.0 size=    7905kB time=00:00:05.02 bitrate=12896.6kbits/s speed=0.00557x    frame=  343 fps=0.4 q=34.0 size=    7905kB time=00:00:05.06 bitrate=12794.7kbits/s speed=0.00557x    frame=  344 fps=0.4 q=34.0 size=    7905kB time=00:00:05.08 bitrate=12744.4kbits/s speed=0.00558x    frame=  347 fps=0.4 q=34.0 size=    7905kB time=00:00:05.14 bitrate=12595.6kbits/s speed=0.00564x    frame=  349 fps=0.4 q=34.0 size=    7905kB time=00:00:05.18 bitrate=12498.4kbits/s speed=0.00563x    frame=  350 fps=0.4 q=34.0 size=    7905kB time=00:00:05.20 bitrate=12450.3kbits/s speed=0.00564x    frame=  351 fps=0.4 q=34.0 size=    7905kB time=00:00:05.22 bitrate=12402.6kbits/s speed=0.00565x    frame=  352 fps=0.4 q=34.0 size=    7905kB time=00:00:05.24 bitrate=12355.3kbits/s speed=0.00567x    frame=  355 fps=0.4 q=34.0 size=    7905kB time=00:00:05.30 bitrate=12215.4kbits/s speed=0.00568x    frame=  356 fps=0.4 q=34.0 size=    7905kB time=00:00:05.32 bitrate=12169.5kbits/s speed=0.00569x    frame=  357 fps=0.4 q=34.0 size=    7905kB time=00:00:05.34 bitrate=12124.0kbits/s speed=0.00569x    frame=  359 fps=0.4 q=34.0 size=    7905kB time=00:00:05.38 bitrate=12033.8kbits/s speed=0.0057x    frame=  360 fps=0.4 q=34.0 size=    7905kB time=00:00:05.40 bitrate=11989.3kbits/s speed=0.00571x    frame=  361 fps=0.4 q=34.0 size=    7905kB time=00:00:05.42 bitrate=11945.0kbits/s speed=0.00572x    frame=  362 fps=0.4 q=34.0 size=    7905kB time=00:00:05.44 bitrate=11901.1kbits/s speed=0.00573x    frame=  363 fps=0.4 q=34.0 size=    7905kB time=00:00:05.46 bitrate=11857.5kbits/s speed=0.00574x    frame=  364 fps=0.4 q=34.0 size=    7905kB time=00:00:05.48 bitrate=11814.3kbits/s speed=0.00575x    frame=  365 fps=0.4 q=34.0 size=    7905kB time=00:00:05.50 bitrate=11771.3kbits/s speed=0.00575x    frame=  366 fps=0.4 q=34.0 size=    7905kB time=00:00:05.52 bitrate=11728.7kbits/s speed=0.00575x    frame=  367 fps=0.4 q=34.0 size=    7905kB time=00:00:05.54 bitrate=11686.3kbits/s speed=0.00576x    frame=  369 fps=0.4 q=34.0 size=    7905kB time=00:00:05.58 bitrate=11602.6kbits/s speed=0.00578x    frame=  370 fps=0.4 q=34.0 size=    7905kB time=00:00:05.60 bitrate=11561.2kbits/s speed=0.00579x    frame=  371 fps=0.4 q=34.0 size=    7905kB time=00:00:05.62 bitrate=11520.0kbits/s speed=0.00577x    frame=  372 fps=0.4 q=34.0 size=    7905kB time=00:00:05.64 bitrate=11479.2kbits/s speed=0.00578x    frame=  373 fps=0.4 q=34.0 size=    7905kB time=00:00:05.66 bitrate=11438.6kbits/s speed=0.00578x    frame=  374 fps=0.4 q=34.0 size=    7905kB time=00:00:05.68 bitrate=11398.4kbits/s speed=0.00576x    frame=  375 fps=0.4 q=34.0 size=    7905kB time=00:00:05.70 bitrate=11358.4kbits/s speed=0.00577x    frame=  376 fps=0.4 q=34.0 size=    7905kB time=00:00:05.72 bitrate=11318.7kbits/s speed=0.00578x    frame=  378 fps=0.4 q=34.0 size=    7905kB time=00:00:05.76 bitrate=11240.1kbits/s speed=0.00581x    frame=  379 fps=0.4 q=34.0 size=    7905kB time=00:00:05.78 bitrate=11201.2kbits/s speed=0.00583x    frame=  380 fps=0.4 q=34.0 size=    7905kB time=00:00:05.80 bitrate=11162.6kbits/s speed=0.00578x    frame=  381 fps=0.4 q=34.0 size=    7905kB time=00:00:05.82 bitrate=11124.2kbits/s speed=0.00579x    frame=  384 fps=0.4 q=34.0 size=    7905kB time=00:00:05.88 bitrate=11010.7kbits/s speed=0.00584x    frame=  385 fps=0.4 q=34.0 size=    7905kB time=00:00:05.90 bitrate=10973.4kbits/s speed=0.00585x    frame=  386 fps=0.4 q=34.0 size=    7905kB time=00:00:05.92 bitrate=10936.3kbits/s speed=0.0058x    frame=  387 fps=0.4 q=34.0 size=    7905kB time=00:00:05.94 bitrate=10899.5kbits/s speed=0.00581x    frame=  389 fps=0.4 q=34.0 size=    7905kB time=00:00:05.98 bitrate=10826.6kbits/s speed=0.0058x    frame=  390 fps=0.4 q=34.0 size=    7905kB time=00:00:06.00 bitrate=10790.5kbits/s speed=0.00581x    frame=  391 fps=0.4 q=34.0 size=    7905kB time=00:00:06.02 bitrate=10754.7kbits/s speed=0.00582x    frame=  392 fps=0.4 q=34.0 size=    7905kB time=00:00:06.04 bitrate=10719.1kbits/s speed=0.00582x    frame=  393 fps=0.4 q=34.0 size=    7905kB time=00:00:06.06 bitrate=10683.7kbits/s speed=0.00583x    frame=  394 fps=0.4 q=34.0 size=    7905kB time=00:00:06.08 bitrate=10648.6kbits/s speed=0.00584x    frame=  395 fps=0.4 q=34.0 size=    7905kB time=00:00:06.10 bitrate=10613.7kbits/s speed=0.00578x    frame=  396 fps=0.4 q=34.0 size=    7905kB time=00:00:06.12 bitrate=10579.0kbits/s speed=0.0058x    frame=  397 fps=0.4 q=33.0 size=    7905kB time=00:00:06.14 bitrate=10544.5kbits/s speed=0.00581x    frame=  398 fps=0.4 q=34.0 size=    7905kB time=00:00:06.16 bitrate=10510.3kbits/s speed=0.00581x    frame=  399 fps=0.4 q=34.0 size=    7905kB time=00:00:06.18 bitrate=10476.3kbits/s speed=0.00582x    frame=  401 fps=0.4 q=34.0 size=    7905kB time=00:00:06.22 bitrate=10408.9kbits/s speed=0.0058x    frame=  402 fps=0.4 q=34.0 size=    7905kB time=00:00:06.24 bitrate=10375.6kbits/s speed=0.00581x    frame=  403 fps=0.4 q=34.0 size=    7905kB time=00:00:06.26 bitrate=10342.4kbits/s speed=0.00576x    frame=  404 fps=0.4 q=34.0 size=    7905kB time=00:00:06.28 bitrate=10309.5kbits/s speed=0.00577x    frame=  405 fps=0.4 q=33.0 size=    7905kB time=00:00:06.30 bitrate=10276.8kbits/s speed=0.00578x    frame=  407 fps=0.4 q=33.0 size=    7905kB time=00:00:06.34 bitrate=10212.0kbits/s speed=0.00581x    frame=  408 fps=0.4 q=33.0 size=    7905kB time=00:00:06.36 bitrate=10179.9kbits/s speed=0.00582x    frame=  409 fps=0.4 q=33.0 size=    7905kB time=00:00:06.38 bitrate=10147.9kbits/s speed=0.00575x    frame=  410 fps=0.4 q=33.0 size=    7905kB time=00:00:06.40 bitrate=10116.2kbits/s speed=0.00576x    frame=  411 fps=0.4 q=33.0 size=    7905kB time=00:00:06.42 bitrate=10084.7kbits/s speed=0.00577x    frame=  413 fps=0.4 q=33.0 size=    7905kB time=00:00:06.46 bitrate=10022.3kbits/s speed=0.0058x    frame=  414 fps=0.4 q=33.0 size=    7905kB time=00:00:06.48 bitrate=9991.4kbits/s speed=0.00581x    frame=  415 fps=0.4 q=33.0 size=    7905kB time=00:00:06.50 bitrate=9960.6kbits/s speed=0.00575x    frame=  416 fps=0.4 q=33.0 size=    7905kB time=00:00:06.52 bitrate=9930.1kbits/s speed=0.00571x    frame=  417 fps=0.4 q=33.0 size=    7905kB time=00:00:06.54 bitrate=9899.7kbits/s speed=0.00572x    frame=  418 fps=0.4 q=33.0 size=    7905kB time=00:00:06.56 bitrate=9869.5kbits/s speed=0.00573x    frame=  421 fps=0.4 q=33.0 size=    7905kB time=00:00:06.62 bitrate=9780.1kbits/s speed=0.00575x    frame=  422 fps=0.4 q=33.0 size=    7905kB time=00:00:06.64 bitrate=9750.6kbits/s speed=0.0057x    frame=  423 fps=0.4 q=33.0 size=    7905kB time=00:00:06.66 bitrate=9721.4kbits/s speed=0.00571x    frame=  424 fps=0.4 q=33.0 size=    7905kB time=00:00:06.68 bitrate=9692.3kbits/s speed=0.00571x    frame=  425 fps=0.4 q=33.0 size=    7905kB time=00:00:06.70 bitrate=9663.3kbits/s speed=0.00573x    frame=  427 fps=0.4 q=33.0 size=    7905kB time=00:00:06.74 bitrate=9606.0kbits/s speed=0.00565x    frame=  428 fps=0.4 q=33.0 size=    7905kB time=00:00:06.76 bitrate=9577.6kbits/s speed=0.00566x    frame=  429 fps=0.4 q=33.0 size=    7905kB time=00:00:06.78 bitrate=9549.3kbits/s speed=0.00567x    frame=  433 fps=0.4 q=33.0 size=    7905kB time=00:00:06.86 bitrate=9438.0kbits/s speed=0.00565x    frame=  434 fps=0.4 q=33.0 size=    7905kB time=00:00:06.88 bitrate=9410.6kbits/s speed=0.00566x    frame=  435 fps=0.4 q=33.0 size=    7905kB time=00:00:06.90 bitrate=9383.3kbits/s speed=0.00566x    frame=  438 fps=0.4 q=33.0 size=    7905kB time=00:00:06.96 bitrate=9302.4kbits/s speed=0.00561x    frame=  439 fps=0.4 q=33.0 size=    7905kB time=00:00:06.98 bitrate=9275.8kbits/s speed=0.00562x    frame=  440 fps=0.4 q=33.0 size=    7905kB time=00:00:07.00 bitrate=9249.3kbits/s speed=0.00563x    frame=  444 fps=0.4 q=33.0 size=    7905kB time=00:00:07.08 bitrate=9144.8kbits/s speed=0.00561x    frame=  445 fps=0.4 q=33.0 size=    7905kB time=00:00:07.10 bitrate=9119.0kbits/s speed=0.00561x    frame=  446 fps=0.4 q=33.0 size=    7905kB time=00:00:07.12 bitrate=9093.4kbits/s speed=0.00561x    frame=  447 fps=0.4 q=33.0 size=    7905kB time=00:00:07.14 bitrate=9067.9kbits/s speed=0.00562x    frame=  448 fps=0.3 q=33.0 size=    7905kB time=00:00:07.16 bitrate=9042.6kbits/s speed=0.00558x    frame=  449 fps=0.3 q=33.0 size=    7905kB time=00:00:07.18 bitrate=9017.4kbits/s speed=0.00559x    frame=  450 fps=0.3 q=33.0 size=    7905kB time=00:00:07.20 bitrate=8992.4kbits/s speed=0.0056x    frame=  451 fps=0.4 q=33.0 size=    7905kB time=00:00:07.22 bitrate=8967.5kbits/s speed=0.0056x    frame=  452 fps=0.3 q=33.0 size=    7905kB time=00:00:07.24 bitrate=8942.7kbits/s speed=0.00561x    frame=  453 fps=0.3 q=33.0 size=    7905kB time=00:00:07.26 bitrate=8918.1kbits/s speed=0.00561x    frame=  454 fps=0.3 q=33.0 size=    7905kB time=00:00:07.28 bitrate=8893.6kbits/s speed=0.00558x    frame=  455 fps=0.3 q=33.0 size=    7905kB time=00:00:07.30 bitrate=8869.2kbits/s speed=0.00558x    frame=  457 fps=0.3 q=33.0 size=    7905kB time=00:00:07.34 bitrate=8820.9kbits/s speed=0.0056x    frame=  458 fps=0.3 q=33.0 size=    7905kB time=00:00:07.36 bitrate=8796.9kbits/s speed=0.00553x    frame=  459 fps=0.3 q=33.0 size=    7905kB time=00:00:07.38 bitrate=8773.1kbits/s speed=0.00554x    frame=  460 fps=0.3 q=33.0 size=    7905kB time=00:00:07.40 bitrate=8749.4kbits/s speed=0.00555x    frame=  464 fps=0.3 q=33.0 size=    7905kB time=00:00:07.48 bitrate=8655.8kbits/s speed=0.00552x    frame=  465 fps=0.3 q=33.0 size=    7905kB time=00:00:07.50 bitrate=8632.7kbits/s speed=0.00553x    frame=  466 fps=0.3 q=33.0 size=    7905kB time=00:00:07.52 bitrate=8609.8kbits/s speed=0.00554x    frame=  467 fps=0.3 q=33.0 size=    7905kB time=00:00:07.54 bitrate=8586.9kbits/s speed=0.00555x    frame=  468 fps=0.3 q=33.0 size=    7905kB time=00:00:07.56 bitrate=8564.2kbits/s speed=0.0055x    frame=  469 fps=0.3 q=33.0 size=    7905kB time=00:00:07.58 bitrate=8541.6kbits/s speed=0.00551x    frame=  470 fps=0.3 q=33.0 size=    7905kB time=00:00:07.60 bitrate=8519.1kbits/s speed=0.00552x    frame=  473 fps=0.3 q=33.0 size=    7905kB time=00:00:07.66 bitrate=8452.4kbits/s speed=0.00555x    frame=  474 fps=0.3 q=33.0 size=    7905kB time=00:00:07.68 bitrate=8430.4kbits/s speed=0.00547x    frame=  476 fps=0.3 q=33.0 size=    7905kB time=00:00:07.72 bitrate=8386.7kbits/s speed=0.0055x    frame=  477 fps=0.3 q=33.0 size=    7905kB time=00:00:07.74 bitrate=8365.1kbits/s speed=0.00551x    frame=  479 fps=0.3 q=33.0 size=    7905kB time=00:00:07.78 bitrate=8322.1kbits/s speed=0.00553x    frame=  480 fps=0.3 q=33.0 size=    7905kB time=00:00:07.80 bitrate=8300.7kbits/s speed=0.00544x    frame=  481 fps=0.3 q=33.0 size=   13091kB time=00:00:07.82 bitrate=13711.8kbits/s speed=0.00545x    frame=  482 fps=0.3 q=33.0 size=   13091kB time=00:00:07.84 bitrate=13676.9kbits/s speed=0.00546x    frame=  486 fps=0.3 q=33.0 size=   13091kB time=00:00:07.92 bitrate=13538.7kbits/s speed=0.00542x    frame=  487 fps=0.3 q=33.0 size=   13091kB time=00:00:07.94 bitrate=13504.6kbits/s speed=0.00544x    frame=  488 fps=0.3 q=33.0 size=   13091kB time=00:00:07.96 bitrate=13470.7kbits/s speed=0.00545x    frame=  489 fps=0.3 q=33.0 size=   13091kB time=00:00:07.98 bitrate=13436.9kbits/s speed=0.00546x    frame=  492 fps=0.3 q=33.0 size=   13091kB time=00:00:08.04 bitrate=13336.7kbits/s speed=0.00544x    frame=  493 fps=0.3 q=33.0 size=   13091kB time=00:00:08.06 bitrate=13303.6kbits/s speed=0.00545x    frame=  494 fps=0.3 q=33.0 size=   13091kB time=00:00:08.08 bitrate=13270.7kbits/s speed=0.00546x    frame=  495 fps=0.3 q=33.0 size=   13091kB time=00:00:08.10 bitrate=13237.9kbits/s speed=0.00541x    frame=  496 fps=0.3 q=33.0 size=   13091kB time=00:00:08.12 bitrate=13205.3kbits/s speed=0.00542x    frame=  497 fps=0.3 q=33.0 size=   13091kB time=00:00:08.14 bitrate=13172.9kbits/s speed=0.00542x    frame=  500 fps=0.3 q=33.0 size=   13091kB time=00:00:08.20 bitrate=13076.5kbits/s speed=0.00546x    frame=  500 fps=0.3 q=33.0 size=   13091kB time=00:00:08.20 bitrate=13076.5kbits/s speed=0.00538x    frame=  500 fps=0.3 q=-1.0 Lsize=   16905kB time=00:00:09.94 bitrate=13930.7kbits/s speed=0.00524x    
video:16900kB audio:0kB subtitle:0kB other streams:0kB global headers:0kB muxing overhead: 0.027378%
bench: utime=7379.284s
bench: maxrss=6464000kB
[libx264 @ 0x2dce120] frame I:3     Avg QP:28.39  size:881423
[libx264 @ 0x2dce120] frame P:45    Avg QP:33.71  size:116089
[libx264 @ 0x2dce120] frame B:452   Avg QP:36.26  size: 20878
[libx264 @ 0x2dce120] consecutive B-frames:  0.6%  0.0%  0.0%  0.0%  0.0%  0.0%  1.4%  3.2%  7.2% 30.0% 19.8%  9.6%  5.2% 14.0%  9.0%  0.0%  0.0%
[libx264 @ 0x2dce120] mb I  I16..4:  8.4% 86.9%  4.7%
[libx264 @ 0x2dce120] mb P  I16..4:  0.0%  0.5%  0.0%  P16..4: 39.9% 30.1%  8.9%  1.8%  0.0%    skip:18.8%
[libx264 @ 0x2dce120] mb B  I16..4:  0.0%  0.0%  0.0%  B16..8: 43.6%  4.4%  0.2%  direct: 0.2%  skip:51.6%  L0:52.7% L1:47.1% BI: 0.2%
[libx264 @ 0x2dce120] final ratefactor: 25.57
[libx264 @ 0x2dce120] 8x8 transform intra:87.3% inter:64.4%
[libx264 @ 0x2dce120] direct mvs  spatial:98.7% temporal:1.3%
[libx264 @ 0x2dce120] coded y,uvDC,uvAC intra: 96.9% 86.6% 73.3% inter: 2.5% 1.7% 0.0%
[libx264 @ 0x2dce120] i16 v,h,dc,p: 17% 26% 27% 29%
[libx264 @ 0x2dce120] i8 v,h,dc,ddl,ddr,vr,hd,vl,hu:  5%  7%  3% 14% 17% 14% 18% 10% 12%
[libx264 @ 0x2dce120] i4 v,h,dc,ddl,ddr,vr,hd,vl,hu:  3%  4%  1% 13% 17% 14% 20% 12% 16%
[libx264 @ 0x2dce120] i8c dc,h,v,p: 51% 21% 13% 14%
[libx264 @ 0x2dce120] Weighted P-Frames: Y:4.4% UV:2.2%
[libx264 @ 0x2dce120] ref P L0: 58.0% 13.2% 14.2%  3.7%  3.0%  2.3%  2.1%  0.6%  0.6%  0.5%  0.4%  0.4%  0.4%  0.3%  0.4%  0.1%
[libx264 @ 0x2dce120] ref B L0: 76.3%  8.3%  6.5%  2.0%  1.8%  1.5%  1.4%  0.4%  0.4%  0.4%  0.3%  0.3%  0.3%  0.2%  0.0%
[libx264 @ 0x2dce120] ref B L1: 93.3%  6.7%
[libx264 @ 0x2dce120] kb/s:13844.19
